.
 
http://www.scenetime.com    -   SceneTime [ We been having it ] !!!


How come you press harder on a remote control when you know the battery is dead? so you better seed to get speed ;)

        Seed back for speed


...................................NFO:.................................................








































          
          
              
              
                    
                    
                    
                    

Minty.The.Assassin.2009.DVDRiP.XviD-SiC

Poster:
[img]http://leetleech.org/images/34606921737486271142.jpg[/img]

IMDB Link:
http://www.imdb.com/title/tt0975699/

Description:
MINTY is a youthful, raven haired, punk rock, feminist, female super heroine, that gets her super powers from eating chocolate

MediaInfo:
General
Complete name                    : Minty.The.Assassin.2009.DVDRiP.XviD-SiC.avi
Format                           : AVI
Format/Info                      : Audio Video Interleave
File size                        : 1.09 GiB
Duration                         : 1h 20mn
Overall bit rate                 : 1 931 Kbps

Video
ID                               : 0
Format                           : MPEG-4 Visual
Format profile                   : Advanced Simple@L5
Format settings, BVOP            : 1
Format settings, QPel            : No
Format settings, GMC             : No warppoints
Format settings, Matrix          : Default (H.263)
Codec ID                         : XVID
Codec ID/Hint                    : XviD
Duration                         : 1h 20mn
Bit rate                         : 1 700 Kbps
Width                            : 720 pixels
Height                           : 480 pixels
Display aspect ratio             : 16:9
Frame rate                       : 23.976 fps
Standard                         : NTSC
Color space                      : YUV
Chroma subsampling               : 4:2:0
Bit depth                        : 8 bits
Scan type                        : Progressive
Compression mode                 : Lossy
Bits/(Pixel*Frame)               : 0.205
Stream size                      : 981 MiB (88%)
Writing library                  : XviD 1.2.1 (UTC 2008-12-04)

Audio
ID                               : 1
Format                           : AC-3
Format/Info                      : Audio Coding 3
Mode extension                   : CM (complete main)
Codec ID                         : 2000
Duration                         : 1h 20mn
Bit rate mode                    : Constant
Bit rate                         : 224 Kbps
Channel(s)                       : 2 channels
Channel positions                : Front: L R
Sampling rate                    : 48.0 KHz
Bit depth                        : 16 bits
Compression mode                 : Lossy
Stream size                      : 129 MiB (12%)
Alignment                        : Aligned on interleaves
Interleave, duration             : 64 ms (1.53 video frames)
Interleave, preload duration     : 192 ms
Title                            : VTS_02_1 T80 2_0ch 224Kbps DELAY 19ms


Screenshots:
[img]http://leetleech.org/images/19648206875826811540.png[/img]
[img]http://leetleech.org/images/38060304757106588477.png[/img]
[img]http://leetleech.org/images/00999673338509156906.png[/img]
[img]http://leetleech.org/images/18040192960308429102.png[/img]
[img]http://leetleech.org/images/80118650589217218205.png[/img]

Note: Lesbians, vampires, ninjas, magic? Sign me up.  

Encoder: thefuzz

Enjoy!

Respects to CaptainHomey, Cyanide, CM8, Rx, THC, ELEKTRI4KA, 
Killerhz, PA, YeFsTe, BoxSlots, MrRep and everyone in the struggle...